<svg width="120" height="100" viewBox="0 0 120 100" fill="none" xmlns="http://www.w3.org/2000/svg">
<rect width="120" height="100" fill="#D9D9D9"/>
<path d="M27.2869 81.8452C23.3026 81.8452 19.7508 81.161 16.6317 79.7926C13.5328 78.4242 11.0677 76.5226 9.23651 74.0877C7.42543 71.6327 6.43939 68.7853 6.27841 65.5455H13.8849C14.0459 67.5376 14.7301 69.2582 15.9375 70.707C17.1449 72.1358 18.7246 73.2425 20.6765 74.0273C22.6284 74.8121 24.7917 75.2045 27.1662 75.2045C29.8224 75.2045 32.1768 74.7417 34.2294 73.8161C36.282 72.8904 37.8918 71.6025 39.059 69.9524C40.2261 68.3023 40.8097 66.3906 40.8097 64.2173C40.8097 61.9434 40.2462 59.9412 39.1193 58.2106C37.9924 56.4599 36.3423 55.0915 34.169 54.1055C31.9957 53.1194 29.3395 52.6264 26.2003 52.6264H21.25V45.9858H26.2003C28.6553 45.9858 30.8085 45.5431 32.6598 44.6577C34.5313 43.7723 35.9902 42.5246 37.0366 40.9148C38.1031 39.3049 38.6364 37.4134 38.6364 35.2401C38.6364 33.1473 38.1735 31.3261 37.2479 29.7766C36.3222 28.2272 35.0142 27.0198 33.3239 26.1545C31.6536 25.2892 29.6816 24.8565 27.4077 24.8565C25.2746 24.8565 23.2623 25.2489 21.3707 26.0337C19.4993 26.7984 17.9699 27.9152 16.7827 29.3842C15.5954 30.8331 14.9515 32.5838 14.8509 34.6364H7.60653C7.72727 31.3965 8.70324 28.5592 10.5344 26.1243C12.3656 23.6693 14.7603 21.7576 17.7184 20.3892C20.6966 19.0208 23.9666 18.3366 27.5284 18.3366C31.3518 18.3366 34.6319 19.1114 37.3686 20.6609C40.1054 22.1902 42.2082 24.2126 43.6772 26.728C45.1462 29.2434 45.8807 31.96 45.8807 34.8778C45.8807 38.3591 44.9651 41.3273 43.1339 43.7823C41.3228 46.2373 38.8577 47.9377 35.7386 48.8835V49.3665C39.6425 50.0104 42.6912 51.6706 44.8846 54.3469C47.078 57.0032 48.1747 60.2933 48.1747 64.2173C48.1747 67.5779 47.2591 70.5964 45.4279 73.2727C43.6168 75.929 41.1417 78.0218 38.0025 79.5511C34.8633 81.0805 31.2914 81.8452 27.2869 81.8452ZM60.641 34.6364H67.7646V84.3807C67.7646 87.2382 67.2715 89.7133 66.2855 91.8061C65.3196 93.8989 63.8506 95.5188 61.8786 96.6658C59.9266 97.8129 57.4615 98.3864 54.4833 98.3864C54.2418 98.3864 54.0004 98.3864 53.7589 98.3864C53.5174 98.3864 53.2759 98.3864 53.0344 98.3864V91.7457C53.2759 91.7457 53.4973 91.7457 53.6985 91.7457C53.8997 91.7457 54.1211 91.7457 54.3626 91.7457C56.5359 91.7457 58.1256 91.1018 59.1317 89.8139C60.1379 88.5462 60.641 86.7351 60.641 84.3807V34.6364ZM64.1424 26.9091C62.7539 26.9091 61.5566 26.4362 60.5504 25.4904C59.5644 24.5446 59.0714 23.4077 59.0714 22.0795C59.0714 20.7514 59.5644 19.6145 60.5504 18.6687C61.5566 17.7229 62.7539 17.25 64.1424 17.25C65.5309 17.25 66.7182 17.7229 67.7042 18.6687C68.7103 19.6145 69.2134 20.7514 69.2134 22.0795C69.2134 23.4077 68.7103 24.5446 67.7042 25.4904C66.7182 26.4362 65.5309 26.9091 64.1424 26.9091ZM113.653 45.0199L107.254 46.831C106.851 45.7644 106.258 44.7281 105.473 43.7219C104.708 42.6957 103.662 41.8505 102.334 41.1864C101.005 40.5224 99.305 40.1903 97.2323 40.1903C94.395 40.1903 92.0305 40.8443 90.1389 42.1523C88.2675 43.4402 87.3318 45.0803 87.3318 47.0724C87.3318 48.8433 87.9757 50.2418 89.2636 51.2681C90.5515 52.2944 92.5638 53.1496 95.3005 53.8338L102.183 55.5241C106.328 56.5303 109.417 58.0697 111.449 60.1424C113.482 62.195 114.498 64.8411 114.498 68.081C114.498 70.7372 113.733 73.1117 112.204 75.2045C110.695 77.2973 108.582 78.9474 105.865 80.1548C103.149 81.3622 99.9892 81.9659 96.3872 81.9659C91.6582 81.9659 87.7443 80.9396 84.6453 78.8871C81.5464 76.8345 79.5844 73.8362 78.7593 69.892L85.5207 68.2017C86.1646 70.697 87.3821 72.5684 89.173 73.8161C90.9841 75.0637 93.3486 75.6875 96.2664 75.6875C99.5867 75.6875 102.223 74.9832 104.175 73.5746C106.147 72.1458 107.133 70.4354 107.133 68.4432C107.133 66.8333 106.569 65.4851 105.443 64.3984C104.316 63.2917 102.585 62.4666 100.251 61.9233L92.5235 60.1122C88.2776 59.1061 85.1585 57.5465 83.1663 55.4336C81.1942 53.3005 80.2082 50.6342 80.2082 47.4347C80.2082 44.8187 80.9427 42.5045 82.4117 40.4922C83.9008 38.4799 85.9231 36.9002 88.4788 35.7532C91.0545 34.6062 93.9724 34.0327 97.2323 34.0327C101.82 34.0327 105.422 35.0388 108.038 37.0511C110.675 39.0634 112.546 41.7197 113.653 45.0199Z" fill="black"/>
</svg>
